<svg width="23" height="22" viewBox="0 0 23 22" fill="none" xmlns="http://www.w3.org/2000/svg">
<mask id="mask0_135_6" style="mask-type:luminance" maskUnits="userSpaceOnUse" x="0" y="0" width="23" height="22">
<path d="M1.40005 7.1999C-0.699949 12.6999 2.00006 18.8999 7.50006 20.9999C13.0001 23.1999 19.2001 20.4999 21.3001 14.9999C23.4001 9.4999 20.7001 3.2999 15.2001 1.0999C14.0001 0.699899 12.6001 0.399902 11.4001 0.399902C7.10005 0.399902 3.10005 2.9999 1.40005 7.1999Z" fill="white"/>
</mask>
<g mask="url(#mask0_135_6)">
<path d="M593.157 -129.356L659.905 449.438L-137.156 541.357L-203.904 -37.4376L593.157 -129.356Z" fill="url(#paint0_radial_135_6)"/>
</g>
<g clip-path="url(#clip0_135_6)">
<mask id="mask1_135_6" style="mask-type:luminance" maskUnits="userSpaceOnUse" x="0" y="11" width="15" height="7">
<path d="M14.1 16.5999C14.2 16.4999 14.2999 16.2999 14.3999 16.1999C14.4999 15.7999 14.2 15.5999 13.8 15.3999C13.1 15.0999 12.3 15.2999 11.5 15.4999C10.8 15.6999 9.99995 15.9999 9.19995 15.9999C8.39995 15.8999 7.59995 15.4999 7.39995 14.7999C7.09995 13.9999 7.59996 13.0999 7.59996 12.2999C7.59996 12.1999 7.59995 12.0999 7.49995 11.9999C7.29995 11.7999 6.99995 11.7999 6.69995 11.8999C5.19995 12.1999 3.69995 12.3999 2.19995 11.9999C1.69995 11.8999 1.09995 11.5999 0.699951 11.3999C0.699951 13.4999 1.49995 15.5999 2.69995 17.3999C2.79995 17.2999 2.89995 17.1999 2.89995 17.0999C3.89995 16.0999 5.49996 16.4999 6.79996 16.8999C7.99996 17.2999 9.19995 17.5999 10.5 17.5999C11.8 17.6999 13.1 17.2999 14.1 16.5999Z" fill="white"/>
</mask>
<g mask="url(#mask1_135_6)">
<path d="M851.696 231.505L189.742 829.043L-395.696 180.495L266.258 -417.043L851.696 231.505Z" fill="url(#paint1_radial_135_6)"/>
</g>
</g>
<g clip-path="url(#clip1_135_6)">
<mask id="mask2_135_6" style="mask-type:luminance" maskUnits="userSpaceOnUse" x="8" y="15" width="13" height="7">
<path d="M20.8 16.1C20.1 15.9 19.4 15.7 18.7 15.8C17.6 16.1 16.8 17.2 16.5 18.4C16.5 18.7 16.4 19 16.2 19.2C16.1 19.3 15.9 19.4 15.7 19.5C14 20.1 12.2 20 10.4 20.3C9.59999 20.4 8.8 20.7 8.5 21.4C13.3 22.7 18.4 20.5 20.8 16.1Z" fill="white"/>
</mask>
<g mask="url(#mask2_135_6)">
<path d="M851.696 231.505L189.742 829.043L-395.696 180.495L266.258 -417.043L851.696 231.505Z" fill="url(#paint2_radial_135_6)"/>
</g>
</g>
<g clip-path="url(#clip2_135_6)">
<mask id="mask3_135_6" style="mask-type:luminance" maskUnits="userSpaceOnUse" x="1" y="0" width="16" height="11">
<path d="M1.40004 7.2C1.40004 7.3 1.40005 7.30001 1.30005 7.40001C1.50005 7.60001 1.60005 7.70001 1.80005 7.90001C2.10005 8.20001 2.60004 8.4 2.90004 8.8C3.00004 9.1 3.10004 9.4 3.20004 9.6C3.50004 10.2 4.30005 10.4 5.00005 10.2C5.60005 10 6.10005 9.5 6.60005 9C7.10005 8.6 7.60005 8.10001 8.30005 7.90001C8.80005 7.80001 9.40004 7.9 9.90004 8.2C10.3 8.5 10.7001 8.9 11.1001 9C11.8001 9.2 12.4 8.7 12.7 8.1C12.9 7.5 12.9 6.9 12.7 6.2C12.6 5.9 12.5 5.6 12.5 5.3C12.6 4.4 13.3001 3.80001 14.1001 3.40001C14.9001 3.10001 15.8 2.9 16.4 2.3C16.6 2.2 16.7 2.00001 16.8 1.90001C16.3 1.60001 15.8 1.4 15.2 1.1C9.70004 -0.999998 3.60004 1.7 1.40004 7.2Z" fill="white"/>
</mask>
<g mask="url(#mask3_135_6)">
<path d="M851.696 231.505L189.742 829.043L-395.696 180.495L266.258 -417.043L851.696 231.505Z" fill="url(#paint3_radial_135_6)"/>
</g>
</g>
<g clip-path="url(#clip3_135_6)">
<mask id="mask4_135_6" style="mask-type:luminance" maskUnits="userSpaceOnUse" x="11" y="3" width="12" height="12">
<path d="M18.4 5.2001C18.3 5.9001 18.5 6.6001 18.5 7.2001C18.6 7.9001 18.5 8.6001 18 9.1001C17.4 9.7001 16.5 9.6001 15.7 9.7001C14.9 9.7001 14.2 9.8001 13.5 10.1001C12.7 10.4001 11.9 10.9001 11.8 11.7001C11.6 12.5001 12.2 13.3001 12.9 13.8001C13.3 14.1001 13.8 14.4001 14.4 14.3001C15.4 14.3001 16.1 13.1001 17.1 13.1001C17.9 13.0001 18.6 13.6001 19.4 14.0001C20 14.3001 20.8 14.4001 21.5 14.3001C22.8 10.5001 21.7 6.4001 19 3.6001C18.6 4.1001 18.4 4.7001 18.4 5.2001Z" fill="white"/>
</mask>
<g mask="url(#mask4_135_6)">
<path d="M851.696 231.505L189.742 829.043L-395.696 180.495L266.258 -417.043L851.696 231.505Z" fill="url(#paint4_radial_135_6)"/>
</g>
</g>
<g clip-path="url(#clip4_135_6)">
<mask id="mask5_135_6" style="mask-type:luminance" maskUnits="userSpaceOnUse" x="0" y="6" width="23" height="16">
<path d="M20.7999 6.19995C20.6999 6.99995 20.4999 7.89995 20.1999 8.69995C18.0999 14.2 11.8999 16.8999 6.39993 14.7999C3.89993 13.7999 1.99994 11.9999 0.799943 9.79995C0.199943 14.5999 2.89994 19.2999 7.49994 21.0999C12.9999 23.2999 19.1999 20.5 21.3999 15C22.4999 12 22.2999 8.79995 20.7999 6.19995Z" fill="white"/>
</mask>
<g mask="url(#mask5_135_6)">
<path opacity="0.25" d="M593.156 -129.356L659.904 449.438L-137.157 541.357L-203.904 -37.4376L593.156 -129.356Z" fill="url(#paint5_radial_135_6)"/>
</g>
</g>
<g clip-path="url(#clip5_135_6)">
<mask id="mask6_135_6" style="mask-type:luminance" maskUnits="userSpaceOnUse" x="1" y="10" width="21" height="12">
<path d="M21.6001 10.3C21.6001 11.4 21.4001 12.5 21.0001 13.6C19.0001 18.7 13.2001 21.2001 8.10013 19.2001C4.50013 17.8001 2.20013 14.6 1.80013 11C1.70013 15.1 4.10012 19 8.20012 20.6C13.3001 22.6 19.0001 20.1 21.0001 15C21.6001 13.4 21.8001 11.9 21.6001 10.3Z" fill="white"/>
</mask>
<g mask="url(#mask6_135_6)">
<path opacity="0.339996" d="M593.156 -129.356L659.904 449.438L-137.157 541.357L-203.904 -37.4376L593.156 -129.356Z" fill="url(#paint6_radial_135_6)"/>
</g>
</g>
<g clip-path="url(#clip6_135_6)">
<mask id="mask7_135_6" style="mask-type:luminance" maskUnits="userSpaceOnUse" x="0" y="0" width="22" height="15">
<path d="M1.70004 8.3C3.80004 2.8 10 0.100003 15.5 2.3C18.7 3.5 20.9 6.1 21.9 9.2C21.2 5.6 18.8 2.5 15.2 1.1C9.70004 -0.999998 3.60004 1.7 1.40004 7.2C0.500041 9.5 0.500053 12 1.10005 14.2C0.800053 12.3 0.900044 10.3 1.70004 8.3Z" fill="white"/>
</mask>
<g mask="url(#mask7_135_6)">
<path opacity="0.449997" d="M-317.305 389.02L-46.5303 -299.457L773.304 22.9797L502.53 711.457L-317.305 389.02Z" fill="url(#paint7_radial_135_6)"/>
</g>
</g>
<g clip-path="url(#clip7_135_6)">
<mask id="mask8_135_6" style="mask-type:luminance" maskUnits="userSpaceOnUse" x="2" y="2" width="19" height="10">
<path d="M2.10002 9.80001C2.30002 8.50001 3.40002 6.90001 4.00002 6.10001C5.30002 4.30001 7.20001 3.00001 9.40001 2.40001C15.1 0.80001 19.3 5.20001 20 7.20001C20.8 9.20001 18.6 10.1 16.2 9.20001C13.8 8.20001 11.4 7.20001 9.50002 7.90001C7.60002 8.60001 6.50001 11.8 4.40001 11.7C3.70001 11.7 2.70002 11.5 2.30002 10.9C2.10002 10.6 2.00002 10.2 2.10002 9.80001Z" fill="white"/>
</mask>
<g mask="url(#mask8_135_6)">
<path d="M593.157 -129.356L659.905 449.438L-137.156 541.357L-203.904 -37.4376L593.157 -129.356Z" fill="url(#paint8_radial_135_6)"/>
</g>
</g>
<g clip-path="url(#clip8_135_6)">
<mask id="mask9_135_6" style="mask-type:luminance" maskUnits="userSpaceOnUse" x="4" y="3" width="6" height="4">
<path d="M9.50005 3.90004C9.80005 4.60004 9.10004 5.60004 7.90004 6.30004C6.70004 6.90004 5.40006 6.90004 5.10006 6.20004C4.70006 5.50004 5.40006 4.40004 6.60006 3.80004C7.90006 3.20004 9.10005 3.20004 9.50005 3.90004Z" fill="white"/>
</mask>
<g mask="url(#mask9_135_6)">
<path opacity="0.449997" d="M-317.305 389.02L-46.5301 -299.457L773.305 22.98L502.53 711.457L-317.305 389.02Z" fill="url(#paint9_radial_135_6)"/>
</g>
</g>
<g clip-path="url(#clip9_135_6)">
<mask id="mask10_135_6" style="mask-type:luminance" maskUnits="userSpaceOnUse" x="10" y="2" width="4" height="3">
<path d="M13.0999 3.20012C13.0999 3.60012 12.4999 4.10012 11.6999 4.10012C10.8999 4.20012 10.1999 3.90012 10.1999 3.50012C10.0999 3.00012 10.6999 2.60012 11.4999 2.50012C12.2999 2.40012 12.9999 2.70012 13.0999 3.20012Z" fill="white"/>
</mask>
<g mask="url(#mask10_135_6)">
<path opacity="0.449997" d="M-317.305 389.02L-46.5303 -299.457L773.304 22.9799L502.53 711.457L-317.305 389.02Z" fill="url(#paint10_radial_135_6)"/>
</g>
</g>
<defs>
<radialGradient id="paint0_radial_135_6" cx="0" cy="0" r="1" gradientUnits="userSpaceOnUse" gradientTransform="translate(13.5457 0.921448) rotate(83.4216) scale(31.3082)">
<stop stop-color="#1AB2DB"/>
<stop offset="0.0738095" stop-color="#1BB0DA"/>
<stop offset="1" stop-color="#461980"/>
</radialGradient>
<radialGradient id="paint1_radial_135_6" cx="0" cy="0" r="1" gradientUnits="userSpaceOnUse" gradientTransform="translate(20.7725 5.21301) rotate(137.928) scale(71.7714)">
<stop stop-color="#F4A400"/>
<stop offset="0.0642857" stop-color="#F4A202"/>
<stop offset="1" stop-color="#ED29B9"/>
</radialGradient>
<radialGradient id="paint2_radial_135_6" cx="0" cy="0" r="1" gradientUnits="userSpaceOnUse" gradientTransform="translate(20.7728 5.21427) rotate(137.928) scale(71.7702 71.7702)">
<stop stop-color="#F4A400"/>
<stop offset="0.0642857" stop-color="#F4A202"/>
<stop offset="1" stop-color="#ED29B9"/>
</radialGradient>
<radialGradient id="paint3_radial_135_6" cx="0" cy="0" r="1" gradientUnits="userSpaceOnUse" gradientTransform="translate(20.7734 5.21338) rotate(137.928) scale(71.772 71.772)">
<stop stop-color="#F4A400"/>
<stop offset="0.0642857" stop-color="#F4A202"/>
<stop offset="1" stop-color="#ED29B9"/>
</radialGradient>
<radialGradient id="paint4_radial_135_6" cx="0" cy="0" r="1" gradientUnits="userSpaceOnUse" gradientTransform="translate(20.7731 5.21385) rotate(137.928) scale(71.772 71.772)">
<stop stop-color="#F4A400"/>
<stop offset="0.0642857" stop-color="#F4A202"/>
<stop offset="1" stop-color="#ED29B9"/>
</radialGradient>
<radialGradient id="paint5_radial_135_6" cx="0" cy="0" r="1" gradientUnits="userSpaceOnUse" gradientTransform="translate(12.8505 3.4313) rotate(83.4216) scale(28.397 28.397)">
<stop stop-color="#1AB2DB"/>
<stop offset="0.0738095" stop-color="#1BB0DA"/>
<stop offset="1" stop-color="#461980"/>
</radialGradient>
<radialGradient id="paint6_radial_135_6" cx="0" cy="0" r="1" gradientUnits="userSpaceOnUse" gradientTransform="translate(12.1832 6.92867) rotate(83.4216) scale(23.2755)">
<stop stop-color="#1AB2DB"/>
<stop offset="0.0738095" stop-color="#1BB0DA"/>
<stop offset="1" stop-color="#461980"/>
</radialGradient>
<radialGradient id="paint7_radial_135_6" cx="0" cy="0" r="1" gradientUnits="userSpaceOnUse" gradientTransform="translate(11.349 8.90173) rotate(-68.5306) scale(9.27184)">
<stop stop-color="#1AB2DB"/>
<stop offset="0.0738095" stop-color="#1BB0DA"/>
<stop offset="1" stop-color="#461980"/>
</radialGradient>
<radialGradient id="paint8_radial_135_6" cx="0" cy="0" r="1" gradientUnits="userSpaceOnUse" gradientTransform="translate(12.5007 1.90622) rotate(83.4216) scale(20.0416)">
<stop stop-color="#1AB2DB"/>
<stop offset="0.0738095" stop-color="#1BB0DA"/>
<stop offset="1" stop-color="#461980"/>
</radialGradient>
<radialGradient id="paint9_radial_135_6" cx="0" cy="0" r="1" gradientUnits="userSpaceOnUse" gradientTransform="translate(7.2888 5.02837) rotate(-68.5305) scale(2.0095)">
<stop stop-color="#1AB2DB"/>
<stop offset="0.0738095" stop-color="#1BB0DA"/>
<stop offset="1" stop-color="#461980"/>
</radialGradient>
<radialGradient id="paint10_radial_135_6" cx="0" cy="0" r="1" gradientUnits="userSpaceOnUse" gradientTransform="translate(11.6273 3.32613) rotate(-68.5306) scale(1.18196)">
<stop stop-color="#1AB2DB"/>
<stop offset="0.0738095" stop-color="#1BB0DA"/>
<stop offset="1" stop-color="#461980"/>
</radialGradient>
<clipPath id="clip0_135_6">
<rect width="13.7" height="6.2" fill="white" transform="translate(0.699951 11.3999)"/>
</clipPath>
<clipPath id="clip1_135_6">
<rect width="12.3" height="6" fill="white" transform="translate(8.5 15.8)"/>
</clipPath>
<clipPath id="clip2_135_6">
<rect width="15.5" height="9.8" fill="white" transform="translate(1.30005 0.399902)"/>
</clipPath>
<clipPath id="clip3_135_6">
<rect width="10.3" height="10.7" fill="white" transform="translate(11.7 3.6001)"/>
</clipPath>
<clipPath id="clip4_135_6">
<rect width="21.4" height="15.6" fill="white" transform="translate(0.699951 6.19995)"/>
</clipPath>
<clipPath id="clip5_135_6">
<rect width="19.9" height="11" fill="white" transform="translate(1.80005 10.3)"/>
</clipPath>
<clipPath id="clip6_135_6">
<rect width="21.2" height="13.8" fill="white" transform="translate(0.699951 0.399902)"/>
</clipPath>
<clipPath id="clip7_135_6">
<rect width="18.1" height="9.7" fill="white" transform="translate(2.1001 2)"/>
</clipPath>
<clipPath id="clip8_135_6">
<rect width="4.60001" height="3.4" fill="white" transform="translate(5 3.30005)"/>
</clipPath>
<clipPath id="clip9_135_6">
<rect width="2.90001" height="1.7" fill="white" transform="translate(10.2 2.5)"/>
</clipPath>
</defs>
</svg>
